#!OML:ASF H:\Terrain\Patient Classification 1\PLAYGROUND\JustinFriday\JustinFriday.ASF
:FULLY-SPECIFIED
:DEGREES
2954
root 13.1323 20.9114 22.9404 -214.734 13.7958 -178.775
lowerback 16.9862 -5.35358 1.03613
upperback -1.14122 -4.72342 9.902
thorax -10.0601 -1.4945 11.6679
lowerneck 0.773901 -2.33711 -43.7866
upperneck 16.585 -0.941259 9.75278
head 5.81802 -1.80812 9.89005
rclavicle 1.43125e-014 3.81667e-014
rhumerus 114.935 10.8401 -70.5511
rradius 35.5975
rwrist -146.043
rhand -38.1636 222.485
rfingers 7.12502
rthumb -11.197 252.166
lclavicle 1.43125e-014 3.81667e-014
lhumerus 57.6724 32.6777 4.6159
lradius 33.4085
lwrist 6.32786
lhand -31.1056 14.0945
lfingers 7.12502
lthumb -4.38513 44.0291
rfemur 4.75923 -11.0751 24.4272
rtibia 76.6989
rfoot -2.61863 -6.3652
rtoes 9.67741
lfemur -24.6492 0.747943 6.23353
ltibia 78.1941
lfoot -185.929 170.564
ltoes -11.4382
2955
root 13.131 20.9847 22.7796 -215.365 14.5168 -179.703
lowerback 16.7048 -5.14231 0.585036
upperback -1.29591 -4.65466 9.6673
thorax -10.0634 -1.48077 11.6232
lowerneck 1.46553 -1.91367 -43.2416
upperneck 16.8271 -0.683244 9.68929
head 5.70672 -1.6749 9.82201
rclavicle -4.13472e-014 9.22361e-014
rhumerus 114.17 10.2325 -69.8789
rradius 35.7032
rwrist -147.348
rhand -38.3392 222.318
rfingers 7.12502
rthumb -11.3664 251.99
lclavicle -4.13472e-014 9.22361e-014
lhumerus 57.204 32.011 4.14531
lradius 34.0928
lwrist 7.82377
lhand -31.5407 13.9978
lfingers 7.12502
lthumb -4.80525 43.9233
rfemur 5.49497 -10.6011 23.9525
rtibia 76.5875
rfoot -2.46058 -6.27011
rtoes 8.83771
lfemur -24.0796 0.599174 6.25909
ltibia 78.5157
lfoot -185.887 170.54
ltoes -14.4729
2956
root 13.1303 21.0691 22.6164 -215.882 15.4692 -180.503
lowerback 16.3453 -4.86819 0.297921
upperback -1.32617 -4.49614 9.33953
thorax -9.92105 -1.44969 11.3284
lowerneck 3.40107 -2.29903 -40.5144
upperneck 16.0778 -1.59719 6.37098
head 5.37031 -2.00469 8.15719
rclavicle -3.65764e-014 5.725e-014
rhumerus 113.437 9.48321 -69.7622
rradius 35.9052
rwrist -148.698
rhand -38.5839 221.655
rfingers 7.12502
rthumb -11.6024 251.314
lclavicle -3.65764e-014 5.725e-014
lhumerus 57.1845 31.6325 3.53092
lradius 34.6613
lwrist 8.89905
lhand -32.4081 13.2966
lfingers 7.12502
lthumb -5.64279 43.2014
rfemur 6.03391 -10.0037 23.7909
rtibia 76.4995
rfoot -1.98707 -6.06835
rtoes 7.17604
lfemur -23.371 0.628678 6.58406
ltibia 78.8042
lfoot -185.243 170.49
ltoes -9.94876
2957
root 13.1333 21.144 22.4513 -216.339 16.8131 -181.019
lowerback 15.984 -4.62689 0.462996
upperback -1.30362 -4.236 9.14487
thorax -9.76462 -1.37237 10.8979
lowerneck 3.62468 -2.04151 -39.1135
upperneck 16.0658 -1.43767 6.30013
head 5.23211 -1.8776 7.96987
rclavicle -8.42847e-014 1.08139e-013
rhumerus 112.803 8.84651 -69.7439
rradius 36.061
rwrist -150.066
rhand -38.8902 220.971
rfingers 7.12502
rthumb -11.8978 250.613
lclavicle -8.42847e-014 1.08139e-013
lhumerus 57.7198 31.6227 3.80144
lradius 35.0219
lwrist 8.87896
lhand -32.2724 13.754
lfingers 7.12502
lthumb -5.51179 43.6624
rfemur 6.57259 -9.37771 24.1015
rtibia 76.341
rfoot -1.23955 -5.90359
rtoes 5.96131
lfemur -22.4921 0.933091 7.5214
ltibia 79.0884
lfoot -184.772 170.351
ltoes -8.98154
2958
root 13.1357 21.2184 22.2882 -216.775 18.0285 -181.597
lowerback 15.53 -4.38031 0.551319
upperback -1.2864 -3.95559 9.08493
thorax -9.54598 -1.26954 10.6592
lowerneck 5.01101 -2.0237 -38.5211
upperneck 15.052 -2.12027 6.10242
head 4.79258 -2.11406 7.77221
rclavicle -1.27222e-013 -1.27222e-014
rhumerus 112.305 8.33059 -69.4855
rradius 36.1877
rwrist -151.471
rhand -39.3362 220.061
rfingers 7.12502
rthumb -12.3278 249.678
lclavicle -1.27222e-013 -1.27222e-014
lhumerus 58.2019 31.7123 4.47538
lradius 35.4253
lwrist 8.60216
lhand -31.8673 15.0727
lfingers 7.12502
lthumb -5.12062 44.9908
rfemur 7.23853 -8.87515 24.1699
rtibia 76.0119
rfoot -0.656332 -5.84465
rtoes 5.98419
lfemur -21.6272 1.06668 8.25112
ltibia 79.3196
lfoot -184.493 170.331
ltoes -10.1841
2959
root 13.1407 21.3017 22.1281 -217.355 18.959 -182.572
lowerback 15.0642 -4.11022 0.273548
upperback -1.25386 -3.77611 8.81942
thorax -9.26993 -1.22354 10.4211
lowerneck 6.15455 -1.94939 -37.8166
upperneck 14.2764 -2.59328 5.99077
head 4.42135 -2.26473 7.61484
rclavicle -4.92986e-014 1.39944e-013
rhumerus 111.794 7.62931 -69.1561
rradius 36.4193
rwrist -152.915
rhand -39.6763 219.84
rfingers 7.12502
rthumb -12.6557 249.436
lclavicle -4.92986e-014 1.39944e-013
lhumerus 58.3737 31.7207 4.47218
lradius 35.8777
lwrist 7.71378
lhand -31.9017 15.8378
lfingers 7.12502
lthumb -5.15377 45.7551
rfemur 8.02882 -8.30339 23.7443
rtibia 75.5502
rfoot 0.0376384 -5.92983
rtoes 7.21717
lfemur -20.5977 1.00486 8.34138
ltibia 79.3958
lfoot -184.011 170.515
ltoes -10.4477
